<?xml version="1.0" standalone="no"?>
<!DOCTYPE svg PUBLIC "-//W3C//DTD SVG 20010904//EN"
 "http://www.w3.org/TR/2001/REC-SVG-20010904/DTD/svg10.dtd">
<svg version="1.0" xmlns="http://www.w3.org/2000/svg"
 width="450.000000pt" height="450.000000pt" viewBox="0 0 450.000000 450.000000"
 preserveAspectRatio="xMidYMid meet">
<metadata>
Created by potrace 1.10, written by Peter Selinger 2001-2011
</metadata>
<g transform="translate(0.000000,450.000000) scale(0.100000,-0.100000)"
fill="#000000" stroke="none">
<path d="M2664 3342 c-16 -8 -40 -25 -53 -39 -15 -16 -29 -22 -40 -17 -73 31
-165 46 -286 47 -167 2 -260 -20 -407 -94 -59 -30 -62 -30 -75 -13 -35 52 -39
52 -149 -19 -69 -45 -139 -111 -180 -173 -24 -35 -118 -223 -147 -294 -78
-187 -93 -435 -40 -650 67 -275 282 -549 524 -666 306 -149 668 -146 979 7
112 55 238 158 266 217 13 27 29 43 50 51 18 6 42 27 55 45 22 33 25 34 83 32
74 -1 119 25 147 88 31 72 -7 165 -80 196 -15 6 -35 25 -44 43 -17 31 -17 34
-1 66 24 47 14 273 -16 381 -55 198 -171 400 -235 412 -12 2 -21 13 -23 28 -5
33 -26 56 -91 98 l-53 34 6 48 c12 91 -38 164 -124 180 -25 5 -47 2 -66 -8z
m96 -37 c57 -29 79 -120 41 -166 l-19 -24 50 -27 c52 -28 137 -89 138 -98 0
-3 -38 -6 -83 -6 -115 -2 -188 -19 -282 -64 -108 -52 -169 -115 -236 -241 -89
-170 -169 -224 -329 -224 -63 1 -85 6 -140 32 -78 38 -86 45 -133 106 -73 96
-98 267 -62 422 15 67 13 93 -6 65 -10 -16 -11 -20 -27 -110 -11 -61 -9 -179
3 -252 10 -62 -7 -64 -34 -5 -43 93 -51 219 -19 321 10 32 16 61 14 64 -10 10
-38 -78 -48 -153 -29 -213 82 -424 270 -513 75 -36 79 -37 197 -37 202 0 268
40 400 239 141 216 239 276 466 292 l96 7 36 -47 c56 -74 125 -216 153 -317
21 -76 27 -124 31 -252 l6 -158 -34 20 c-52 32 -178 69 -262 77 -93 8 -195
-13 -293 -60 -60 -29 -114 -70 -106 -82 7 -11 -1 -23 -24 -39 -39 -25 -42 -9
-4 30 27 28 34 44 37 87 5 63 -9 94 -56 125 -47 32 -86 31 -89 -2 -1 -19 3
-25 19 -25 11 0 34 -13 50 -29 41 -42 41 -101 -1 -143 -28 -28 -36 -30 -78
-25 -53 6 -102 50 -102 92 0 14 -2 25 -4 25 -2 0 -39 -18 -81 -39 -156 -80
-309 -83 -465 -8 -124 60 -208 173 -232 313 -10 63 -9 89 12 225 13 85 25 201
26 259 2 87 1 96 -6 50 -5 -30 -6 -58 -4 -61 2 -4 -3 -40 -12 -81 -18 -84 -16
-74 -40 -237 -17 -119 -17 -126 0 -194 20 -75 50 -139 92 -194 25 -33 27 -44
2 -20 -18 17 -89 49 -96 42 -17 -16 112 -110 222 -160 157 -72 350 -85 505
-32 l74 24 34 -23 c19 -13 50 -26 69 -30 l33 -6 -27 -23 c-60 -49 -224 -157
-279 -183 -107 -50 -274 -32 -416 46 -83 45 -163 160 -207 297 -12 39 -26 74
-31 80 -24 26 3 -105 38 -185 42 -95 55 -119 68 -124 8 -3 15 -12 15 -21 0 -8
4 -15 9 -15 5 0 49 -40 98 -88 49 -49 103 -97 121 -107 51 -31 37 -37 -23 -11
-76 34 -129 73 -205 149 -95 95 -99 101 -138 202 -42 109 -44 125 -44 318 0
178 -1 186 -10 102 -12 -115 -4 -283 17 -360 9 -33 34 -98 57 -144 32 -67 57
-102 122 -167 104 -104 187 -146 354 -180 188 -38 285 -31 567 41 94 24 206
47 250 51 84 7 194 -7 250 -30 l30 -13 -62 -60 c-119 -115 -245 -182 -432
-229 -236 -60 -513 -34 -716 69 -251 126 -439 363 -512 646 -28 110 -41 303
-25 391 27 150 88 316 172 470 34 63 174 219 186 207 3 -3 31 15 61 39 30 25
57 43 59 41 2 -2 -7 -37 -21 -77 -14 -40 -25 -76 -25 -78 0 -3 21 15 46 38 51
46 192 117 294 146 137 39 505 12 490 -36 -10 -34 -2 -79 18 -108 l23 -31 -38
-6 c-69 -11 -197 -56 -261 -91 -35 -20 -62 -37 -60 -39 2 -2 39 14 83 36 103
50 197 71 313 71 97 0 115 9 57 28 -77 25 -110 116 -64 174 36 46 80 56 129
31z m-237 -480 c-10 -13 -21 -25 -25 -25 -5 0 -8 -13 -8 -30 0 -20 -11 -43
-33 -67 -18 -21 -44 -55 -56 -75 -12 -21 -24 -38 -26 -38 -11 0 76 168 110
210 40 50 72 72 38 25z m-826 -196 c2 -24 0 -23 -16 8 -9 18 -9 22 2 18 7 -3
13 -15 14 -26z m1400 -469 c39 -11 87 -29 107 -41 31 -18 34 -24 29 -50 -5
-25 -2 -29 16 -29 55 0 121 -65 121 -118 0 -13 -7 -36 -15 -52 -48 -93 -175
-74 -206 31 -10 33 -10 42 4 57 24 27 21 32 -16 32 -40 0 -57 -28 -57 -91 0
-42 34 -89 65 -89 22 0 18 -10 -19 -54 l-34 -39 -28 20 c-61 43 -131 58 -264
58 -115 -1 -140 -5 -310 -48 -102 -25 -225 -51 -275 -57 -197 -25 -365 22
-470 130 l-40 41 75 -35 c134 -64 275 -73 381 -24 30 14 138 81 241 151 195
131 296 186 388 211 81 22 221 20 307 -4z m-617 -99 c0 -5 -7 -11 -15 -15 -15
-5 -20 5 -8 17 9 10 23 9 23 -2z"/>
<path d="M1416 2724 c-7 -17 -8 -70 -2 -63 6 6 17 79 12 79 -2 0 -7 -7 -10
-16z"/>
<path d="M3255 1591 c-64 -28 -95 -124 -61 -190 20 -38 70 -71 109 -71 44 0
94 28 118 67 49 79 -8 191 -102 199 -24 2 -53 0 -64 -5z m79 -31 c45 -17 66
-46 66 -93 0 -52 -20 -82 -64 -97 -116 -38 -175 144 -61 191 27 11 30 11 59
-1z"/>
<path d="M0 241 c0 -5 7 -11 15 -15 12 -4 15 -25 15 -100 0 -75 3 -94 13 -90
7 2 26 -2 42 -10 26 -13 32 -13 58 2 36 21 50 47 43 77 -7 26 -92 108 -105
101 -4 -3 -19 6 -31 19 -23 25 -50 33 -50 16z m97 -72 c6 -6 8 -30 5 -56 -5
-45 -4 -45 18 -33 12 7 18 15 13 19 -11 7 -25 41 -17 41 20 0 44 -24 44 -45 0
-21 -32 -55 -52 -55 -22 0 -38 36 -38 86 0 54 6 64 27 43z"/>
</g>
</svg>
